<?xml version="1.0" encoding="utf-8"?>
<!-- Generator: Adobe Illustrator 19.0.0, SVG Export Plug-In . SVG Version: 6.00 Build 0)  -->
<svg version="1.1" id="Capa_1" xmlns="http://www.w3.org/2000/svg" xmlns:xlink="http://www.w3.org/1999/xlink" x="0px" y="0px"
	 viewBox="-402 280.3 36 35" style="enable-background:new -402 280.3 36 35;" xml:space="preserve">
<style type="text/css">
	.st0{fill:#517FA4;}
</style>
<title>IG</title>
<desc>Created with Sketch.</desc>
<g id="Iconos">
	<g id="Redes-sociales" transform="translate(-687.000000, -93.000000)">
		<g>
			<circle class="st0" cx="302.5" cy="390.8" r="2.5"/>
			<path class="st0" d="M302.6,373.3c-9.7,0-17.6,7.8-17.6,17.5c0,9.7,7.9,17.5,17.6,17.5s17.6-7.8,17.6-17.5
				C320.2,381.1,312.3,373.3,302.6,373.3z M313,395.3c0,3.3-2.7,6-6,6h-9c-3.3,0-6-2.7-6-6v-9c0-3.3,2.7-6,6-6h9c3.3,0,6,2.7,6,6
				V395.3z"/>
			<path class="st0" d="M307,382.3h-9c-2.2,0-4,1.8-4,4v9c0,2.2,1.8,4,4,4h9c2.2,0,4-1.8,4-4v-9C311,384.1,309.2,382.3,307,382.3z
				 M302.5,395.3c-2.5,0-4.5-2-4.5-4.5s2-4.5,4.5-4.5s4.5,2,4.5,4.5S305,395.3,302.5,395.3z"/>
		</g>
	</g>
</g>
</svg>
