<?xml version="1.0" encoding="UTF-8"?>
<svg width="42px" height="28px" viewBox="0 0 42 28" version="1.1" xmlns="http://www.w3.org/2000/svg" xmlns:xlink="http://www.w3.org/1999/xlink">
    <!-- Generator: Sketch 44.1 (41455) - http://www.bohemiancoding.com/sketch -->
    <title>generar selected</title>
    <desc>Created with Sketch.</desc>
    <defs>
        <polygon id="path-1" points="0.000145198907 0.123925771 34.3604238 0.123925771 34.3604238 20.9550076 0.000145198907 20.9550076 0.000145198907 0.123925771"></polygon>
    </defs>
    <g id="Iconos" stroke="none" stroke-width="1" fill="none" fill-rule="evenodd">
        <g id="iconos-menú-admin" transform="translate(-61.000000, -45.000000)">
            <g id="generar-selected" transform="translate(61.000000, 45.000000)">
                <g id="Group-3" transform="translate(0.000000, 0.190575)">
                    <mask id="mask-2" fill="white">
                        <use xlink:href="#path-1"></use>
                    </mask>
                    <g id="Clip-2"></g>
                    <path d="M22.9757759,17.4459013 C21.6172925,16.8647317 20.7144736,16.1860658 20.1675215,15.6688782 C19.9470387,15.4594135 19.6569298,15.3497301 19.3629528,15.3497301 C19.208228,15.3497301 19.0527296,15.3801977 18.9049675,15.4426563 C18.6635969,15.5439611 18.4067538,15.5965177 18.1421744,15.5965177 L16.2700048,15.5965177 C16.0054255,15.5965177 15.7485824,15.5439611 15.5079854,15.4426563 C15.0786242,15.261374 14.5811841,15.3497301 14.2446577,15.6688782 C13.0602397,16.7893244 10.2357392,18.6699373 4.63083471,18.6699373 C4.45367486,18.6699373 4.27496777,18.5777728 4.09780792,18.3949671 C2.80817704,17.0650562 2.04847846,11.8101562 2.40125092,8.70626901 C2.72772016,5.83317394 3.41933984,2.40861524 4.85828011,2.40861524 C9.56346007,2.40861524 12.2680489,3.96855657 13.7085364,5.27714017 C14.1100472,5.64275142 14.7188891,5.68312099 15.16527,5.37006636 C15.484003,5.14841454 15.8762303,5.02654412 16.2700048,5.02654412 L18.1421744,5.02654412 C18.5359489,5.02654412 18.9274026,5.14841454 19.2461356,5.37006636 C19.6940638,5.6823593 20.3005848,5.64275142 20.7028692,5.27714017 C22.1441303,3.96855657 24.8487191,2.40861524 29.5538991,2.40861524 C30.993613,2.40861524 31.6844591,5.83317394 32.0109283,8.70626901 C32.0202118,8.78776985 32.0256272,8.8761259 32.0333634,8.96067351 C32.437195,8.91421041 32.8456684,8.88374281 33.261878,8.88374281 C33.6332174,8.88374281 33.9991415,8.90354675 34.3604238,8.94086956 C34.3480458,8.77177436 34.3341206,8.60496423 34.3171009,8.45262621 C33.8498321,4.33416782 32.918389,0.123544926 29.5538991,0.123544926 C24.7055987,0.123544926 21.6188398,1.61645753 19.7667844,3.06138365 C19.2538718,2.85191888 18.6984099,2.74147381 18.1421744,2.74147381 L16.2700048,2.74147381 C15.7137693,2.74147381 15.1583074,2.85191888 14.6446212,3.06138365 C12.7933394,1.61645753 9.70658048,0.123544926 4.85828011,0.123544926 C1.49456382,0.123544926 0.563120765,4.33416782 0.0950783652,8.45262621 C-0.238353493,11.3843714 0.253671245,17.7406753 2.41904427,19.9724273 C3.03330156,20.6061535 3.81852972,20.9550076 4.63083471,20.9550076 C10.3649343,20.9550076 13.6636662,19.1345682 15.3269574,17.7779981 C15.634086,17.8465503 15.9497246,17.881588 16.2700048,17.881588 L18.1421744,17.881588 C18.4624547,17.881588 18.7780932,17.8465503 19.0859954,17.7779981 C19.9083576,18.4490471 21.133004,19.2335879 22.8535434,19.8551271 C22.8380709,19.6258583 22.8179567,19.3988747 22.8179567,19.1665592 C22.8179567,18.5785344 22.8798466,18.0065052 22.9757759,17.4459013" id="Fill-1" fill="#FFFFFF" mask="url(#mask-2)"></path>
                </g>
                <path d="M17.1917776,6.46811881 C16.6386366,6.46811881 16.1899347,6.91675428 16.1899347,7.47050299 C16.1899347,8.02349 16.6386366,8.47288716 17.1917776,8.47288716 C17.7449186,8.47288716 18.1936204,8.02349 18.1936204,7.47050299 C18.1936204,6.91675428 17.7449186,6.46811881 17.1917776,6.46811881" id="Fill-4" fill="#FFFFFF"></path>
                <path d="M36.0932637,20.5836075 L34.4114056,20.5836075 L34.4114056,22.2395218 C34.4114056,22.6965358 34.0346508,23.0674789 33.5704765,23.0674789 C33.1063022,23.0674789 32.7295475,22.6965358 32.7295475,22.2395218 L32.7295475,20.5836075 L31.0476893,20.5836075 C30.583515,20.5836075 30.2067602,20.2126644 30.2067602,19.7556503 C30.2067602,19.2986363 30.583515,18.9276932 31.0476893,18.9276932 L32.7295475,18.9276932 L32.7295475,17.2717789 C32.7295475,16.8147648 33.1063022,16.4438218 33.5704765,16.4438218 C34.0346508,16.4438218 34.4114056,16.8147648 34.4114056,17.2717789 L34.4114056,18.9276932 L36.0932637,18.9276932 C36.557438,18.9276932 36.9341928,19.2986363 36.9341928,19.7556503 C36.9341928,20.2126644 36.557438,20.5836075 36.0932637,20.5836075 M33.3585036,11.9300462 C29.086553,11.9300462 25.6222656,15.3401328 25.6222656,19.5469472 C25.6222656,23.7537617 29.086553,27.1638483 33.3585036,27.1638483 C37.6312279,27.1638483 41.0947416,23.7537617 41.0947416,19.5469472 C41.0947416,15.3401328 37.6312279,11.9300462 33.3585036,11.9300462" id="Fill-6" fill="#FFFFFF"></path>
            </g>
        </g>
    </g>
</svg>