<?xml version="1.0" encoding="UTF-8"?>
<svg width="40px" height="26px" viewBox="0 0 40 26" version="1.1" xmlns="http://www.w3.org/2000/svg" xmlns:xlink="http://www.w3.org/1999/xlink">
    <!-- Generator: Sketch 45.2 (43514) - http://www.bohemiancoding.com/sketch -->
    <title>liberar inactive</title>
    <desc>Created with Sketch.</desc>
    <defs>
        <polygon id="path-1" points="0.000145198907 0.123925771 34.3604238 0.123925771 34.3604238 20.9550076 0.000145198907 20.9550076 0.000145198907 0.123925771"></polygon>
    </defs>
    <g id="Iconos" stroke="none" stroke-width="1" fill="none" fill-rule="evenodd">
        <g id="iconos-menú-admin" transform="translate(-315.000000, -121.000000)">
            <g id="liberar-inactive" transform="translate(315.000000, 121.000000)">
                <g id="Group-3" transform="translate(0.000000, 0.190575)">
                    <mask id="mask-2" fill="white">
                        <use xlink:href="#path-1"></use>
                    </mask>
                    <g id="Clip-2"></g>
                    <path d="M22.9757759,17.4459013 C21.6172925,16.8647317 20.7144736,16.1860658 20.1675215,15.6688782 C19.9470387,15.4594135 19.6569298,15.3497301 19.3629528,15.3497301 C19.208228,15.3497301 19.0527296,15.3801977 18.9049675,15.4426563 C18.6635969,15.5439611 18.4067538,15.5965177 18.1421744,15.5965177 L16.2700048,15.5965177 C16.0054255,15.5965177 15.7485824,15.5439611 15.5079854,15.4426563 C15.0786242,15.261374 14.5811841,15.3497301 14.2446577,15.6688782 C13.0602397,16.7893244 10.2357392,18.6699373 4.63083471,18.6699373 C4.45367486,18.6699373 4.27496777,18.5777728 4.09780792,18.3949671 C2.80817704,17.0650562 2.04847846,11.8101562 2.40125092,8.70626901 C2.72772016,5.83317394 3.41933984,2.40861524 4.85828011,2.40861524 C9.56346007,2.40861524 12.2680489,3.96855657 13.7085364,5.27714017 C14.1100472,5.64275142 14.7188891,5.68312099 15.16527,5.37006636 C15.484003,5.14841454 15.8762303,5.02654412 16.2700048,5.02654412 L18.1421744,5.02654412 C18.5359489,5.02654412 18.9274026,5.14841454 19.2461356,5.37006636 C19.6940638,5.6823593 20.3005848,5.64275142 20.7028692,5.27714017 C22.1441303,3.96855657 24.8487191,2.40861524 29.5538991,2.40861524 C30.993613,2.40861524 31.6844591,5.83317394 32.0109283,8.70626901 C32.0202118,8.78776985 32.0256272,8.8761259 32.0333634,8.96067351 C32.437195,8.91421041 32.8456684,8.88374281 33.261878,8.88374281 C33.6332174,8.88374281 33.9991415,8.90354675 34.3604238,8.94086956 C34.3480458,8.77177436 34.3341206,8.60496423 34.3171009,8.45262621 C33.8498321,4.33416782 32.918389,0.123544926 29.5538991,0.123544926 C24.7055987,0.123544926 21.6188398,1.61645753 19.7667844,3.06138365 C19.2538718,2.85191888 18.6984099,2.74147381 18.1421744,2.74147381 L16.2700048,2.74147381 C15.7137693,2.74147381 15.1583074,2.85191888 14.6446212,3.06138365 C12.7933394,1.61645753 9.70658048,0.123544926 4.85828011,0.123544926 C1.49456382,0.123544926 0.563120765,4.33416782 0.0950783652,8.45262621 C-0.238353493,11.3843714 0.253671245,17.7406753 2.41904427,19.9724273 C3.03330156,20.6061535 3.81852972,20.9550076 4.63083471,20.9550076 C10.3649343,20.9550076 13.6636662,19.1345682 15.3269574,17.7779981 C15.634086,17.8465503 15.9497246,17.881588 16.2700048,17.881588 L18.1421744,17.881588 C18.4624547,17.881588 18.7780932,17.8465503 19.0859954,17.7779981 C19.9083576,18.4490471 21.133004,19.2335879 22.8535434,19.8551271 C22.8380709,19.6258583 22.8179567,19.3988747 22.8179567,19.1665592 C22.8179567,18.5785344 22.8798466,18.0065052 22.9757759,17.4459013" id="Fill-1" fill="#8084C0" mask="url(#mask-2)"></path>
                </g>
                <path d="M17.1917776,6.46811881 C16.6386366,6.46811881 16.1899347,6.91675428 16.1899347,7.47050299 C16.1899347,8.02349 16.6386366,8.47288716 17.1917776,8.47288716 C17.7449186,8.47288716 18.1936204,8.02349 18.1936204,7.47050299 C18.1936204,6.91675428 17.7449186,6.46811881 17.1917776,6.46811881" id="Fill-4" fill="#8084C0"></path>
                <g id="Page-1" transform="translate(25.000000, 11.000000)" fill="#8084C0">
                    <path d="M8.02038145,9.64189336 C8.02038145,9.93829876 7.7937185,10.1649617 7.4973131,10.1649617 C7.2009077,10.1649617 6.97424474,9.93829876 6.97424474,9.64189336 L6.97424474,8.8224196 C6.97424474,8.5260142 7.2009077,8.29935124 7.4973131,8.29935124 C7.7937185,8.29935124 8.02038145,8.5260142 8.02038145,8.8224196 L8.02038145,9.64189336 Z M10.1300905,7.6542336 L4.88197132,7.6542336 C4.8471001,7.6542336 4.81222887,7.68910483 4.79479326,7.74141166 L4.79479326,10.7577725 C4.79479326,10.7926437 4.82966448,10.827515 4.88197132,10.827515 L10.1300905,10.827515 C10.1649617,10.827515 10.1998329,10.7926437 10.1998329,10.7577725 L10.1998329,7.74141166 C10.1998329,7.70654044 10.1649617,7.67166922 10.1300905,7.6542336 L10.1300905,7.6542336 Z" id="Fill-1"></path>
                    <path d="M11.2459696,10.7577725 C11.2459696,11.3680189 10.7403369,11.8736517 10.1300905,11.8736517 L4.88197132,11.8736517 C4.25428929,11.8736517 3.74865655,11.3680189 3.74865655,10.7403369 L3.74865655,7.74141166 C3.74865655,7.11372964 4.25428929,6.6255325 4.88197132,6.60809689 L5.02145621,6.60809689 L5.02145621,5.24811917 C5.05632744,3.88814144 6.18964221,2.80713351 7.56705554,2.84200473 C8.87472643,2.87687596 9.93829876,3.92301267 9.97316998,5.24811917 C9.97316998,5.54452457 9.74650703,5.77118752 9.45010162,5.77118752 C9.15369622,5.77118752 8.92703327,5.54452457 8.92703327,5.24811917 C8.89216205,4.46351663 8.22960879,3.83583461 7.44500626,3.87070583 C6.69527495,3.90557706 6.10246415,4.49838786 6.06759293,5.24811917 L6.06759293,6.60809689 L10.1300905,6.60809689 C10.7577725,6.60809689 11.2459696,7.11372964 11.2459696,7.74141166 L11.2459696,10.7577725 Z M7.4973131,0 C3.36507309,0 0,3.36507309 0,7.4973131 C0,11.6295531 3.36507309,14.9946262 7.4973131,14.9946262 C11.6295531,14.9946262 14.9946262,11.6295531 14.9946262,7.4973131 C14.9946262,3.36507309 11.6295531,0 7.4973131,0 L7.4973131,0 Z" id="Fill-3"></path>
                </g>
            </g>
        </g>
    </g>
</svg>