<?xml version="1.0" encoding="UTF-8"?>
<svg width="27px" height="27px" viewBox="0 0 27 27" version="1.1" xmlns="http://www.w3.org/2000/svg" xmlns:xlink="http://www.w3.org/1999/xlink">
    <!-- Generator: Sketch 44.1 (41455) - http://www.bohemiancoding.com/sketch -->
    <title>log out</title>
    <desc>Created with Sketch.</desc>
    <defs></defs>
    <g id="Iconos" stroke="none" stroke-width="1" fill="none" fill-rule="evenodd">
        <g id="iconos-menú-admin" transform="translate(-136.000000, -120.000000)" fill-rule="nonzero" fill="#8084C0">
            <g id="log-out" transform="translate(136.000000, 120.000000)">
                <path d="M13.3491783,26.7729851 C5.98835795,26.7729851 1.35166606e-16,21.030389 1.35166606e-16,13.9721516 C-0.000716237627,11.3196911 0.85082149,8.73758396 2.42840325,6.60853488 C3.98180959,4.49702484 6.13123587,2.89692066 8.64463585,1.98705749 C9.10403531,1.82077215 9.61662289,2.04353175 9.79183086,2.48434477 C9.96703882,2.92515779 9.73290675,3.41617015 9.2735073,3.58245549 C4.78901771,5.20347607 1.77971662,9.37577389 1.77971662,13.9705829 C1.77971662,20.0886283 6.97077404,25.0667302 13.3512641,25.0667302 C19.7317542,25.0667302 24.9228116,20.0891512 24.9228116,13.9705829 C24.9228116,9.38361754 21.9176821,5.21131972 17.4457074,3.58873041 C16.9868294,3.42192216 16.7553046,2.93038689 16.9289482,2.49061969 C17.1025918,2.05085249 17.6157008,1.8286158 18.0761432,1.99490114 C20.5848501,2.90528721 22.7295833,4.50486849 24.2814253,6.6148098 C25.8536402,8.74356167 26.7010465,11.3231376 26.6983566,13.9721516 C26.6983566,21.030389 20.7099986,26.7729851 13.3491783,26.7729851 Z" id="Shape"></path>
                <path d="M13.3491783,16.46434 C12.8584917,16.46434 12.4627094,16.0826158 12.4627094,15.6119969 L12.4627094,0.852343081 C12.4627094,0.381724202 12.8605775,0 13.3491783,0 C13.8377791,0 14.2356472,0.381724202 14.2356472,0.852343081 L14.2356472,15.6119969 C14.2356472,16.0831387 13.8398649,16.46434 13.3491783,16.46434 Z" id="Shape"></path>
            </g>
        </g>
    </g>
</svg>