<?xml version="1.0" encoding="UTF-8"?>
<svg width="36px" height="26px" viewBox="0 0 36 26" version="1.1" xmlns="http://www.w3.org/2000/svg" xmlns:xlink="http://www.w3.org/1999/xlink">
    <!-- Generator: Sketch 44.1 (41455) - http://www.bohemiancoding.com/sketch -->
    <title>usuarios selected</title>
    <desc>Created with Sketch.</desc>
    <defs></defs>
    <g id="Iconos" stroke="none" stroke-width="1" fill="none" fill-rule="evenodd" stroke-linecap="round" stroke-linejoin="round">
        <g id="iconos-menú-admin" transform="translate(-226.000000, -46.000000)" stroke="#FFFFFF" stroke-width="2">
            <g id="usuarios-selected" transform="translate(226.000000, 47.000000)">
                <g id="Group" transform="translate(0.560522, 0.000000)">
                    <g transform="translate(6.055219, 0.000000)">
                        <ellipse id="Oval" cx="11.178865" cy="5.87315836" rx="5.90057759" ry="5.85605431"></ellipse>
                        <path d="M22.2203232,23.0969291 C22.2203232,16.8202078 17.2760043,11.7292127 11.1797966,11.7292127 C5.08125994,11.7292127 0.137406883,16.8202078 0.137406883,23.0969291" id="Shape"></path>
                    </g>
                    <g transform="translate(0.000000, 1.386814)" id="Shape">
                        <path d="M12.5338366,8.10408022 C11.6856402,8.99533951 10.4839123,9.55145202 9.15129838,9.55145202 C6.58202257,9.55145202 4.49995896,7.48417425 4.49995896,4.93520965 C4.49995896,2.38624506 6.58202257,0.318967278 9.15129838,0.318967278 C10.297132,0.318967278 11.346548,0.730851111 12.1570157,1.41270145"></path>
                        <path d="M6.5210046,18.5121212 L0.447620387,18.5121212 C0.447620387,13.5644302 4.34485221,9.55145202 9.15176417,9.55145202 C10.8397728,9.55145202 12.4145954,10.0460824 13.7495382,10.9026714"></path>
                    </g>
                    <path d="M27.8698421,19.8989354 L34.3908467,19.8989354 C34.3908467,14.9512444 30.4926833,10.9382663 25.6871687,10.9382663 L25.6862371,10.9382663 C28.2555129,10.9382663 30.3371108,8.8709885 30.3371108,6.3220239 C30.3371108,3.77305931 28.2545814,1.70578153 25.6862371,1.70578153 C24.4253543,1.70578153 23.280918,2.20411012 22.4429689,3.0130851" id="Shape"></path>
                </g>
            </g>
        </g>
    </g>
</svg>